<?xml version="1.0" encoding="utf-8"?>
<!-- Generator: Adobe Illustrator 15.0.0, SVG Export Plug-In . SVG Version: 6.00 Build 0)  -->
<!DOCTYPE svg PUBLIC "-//W3C//DTD SVG 1.1//EN" "http://www.w3.org/Graphics/SVG/1.1/DTD/svg11.dtd">
<svg version="1.1" id="Layer_1" xmlns="http://www.w3.org/2000/svg" xmlns:xlink="http://www.w3.org/1999/xlink" x="0px" y="0px"
	 width="512px" height="512px" viewBox="0 0 512 512" enable-background="new 0 0 512 512" xml:space="preserve">
<g>
	<path d="M507.388,253.694c0,140.066-113.626,253.694-253.694,253.694C113.628,507.388,0,393.76,0,253.694S113.628,0,253.694,0
		C393.762,0,507.388,113.628,507.388,253.694z M336.598,178.375c1.661-0.338,3.323-6.286,4.311-7.585
		c1.974-2.312,4.623-3.636,7.272-4.959c5.609-2.312,11.22-2.988,17.168-3.975c5.609-1.325,12.544-1.325,16.854,3.637
		c-1.012-0.987,6.935-7.922,7.922-8.26c2.962-1.637,7.922-0.987,9.896-3.973c0.675-0.987,0.675-7.247,0.675-7.247
		c-5.612,0.649-7.609-4.623-7.924-9.246c0,0.312-0.672,1.299-1.997,2.624c0.336-4.936-5.948-1.325-8.26-1.976
		c-7.585-1.974-6.597-7.271-8.908-12.881c-1.324-2.962-4.961-3.972-6.285-6.935c-1.325-1.975-1.974-6.284-4.96-6.622
		c-1.975-0.312-5.611,6.958-6.26,6.622c-2.986-1.661-4.311,0.651-6.622,1.974c-1.976,1.325-3.611,0.674-5.61,1.661
		c5.946-1.997-2.649-5.296-5.611-4.623c4.623-1.323,2.312-6.284-0.337-8.596c0.675,0,0.987,0,1.661,0
		c-0.674-2.962-9.92-5.61-12.883-7.585c-2.983-1.997-18.828-5.295-22.127-3.322c-3.973,2.312,0.987,8.934,0.987,12.232
		c0.336,3.973-3.973,4.959-3.973,8.259c0,5.61,10.571,4.623,7.921,12.208c-1.637,4.647-7.921,5.633-10.57,9.27
		c-2.624,3.298,0.338,9.246,2.985,11.558c2.649,1.974-4.623,5.272-5.609,5.948c-5.636,2.625-9.921-5.635-11.245-10.571
		c-0.987-3.636-1.325-7.947-5.272-9.92c-1.999-0.651-8.26-1.637-9.584,0.336c-1.976-4.959-8.91-6.935-13.557-8.596
		c-6.599-2.312-12.208-2.312-19.144-1.325c2.312-0.312-0.674-10.569-6.284-8.908c1.661-3.3,0.987-6.935,1.661-10.235
		c0.651-2.647,1.976-5.295,3.949-7.607c0.674-1.325,7.947-8.91,5.635-9.246c5.61,0.648,11.87,0.987,16.517-3.637
		c2.962-2.962,4.287-7.921,7.247-11.221c4.311-4.959,9.584,1.301,14.207,1.637c6.622,0.338,6.286-6.935,2.65-10.233
		c4.285,0.338,0.648-7.609-1.663-8.596c-2.961-0.989-14.206,1.999-8.26,4.311c-1.299-0.676-9.246,15.843-13.869,7.583
		c-1.323-1.661-1.974-8.596-4.959-8.908c-2.624,0-4.287,2.96-5.273,4.936c1.663-4.287-9.246-7.248-11.558-7.585
		c4.961-3.298,0.987-6.935-2.647-8.908c-2.649-1.663-10.907-2.986-13.219-0.338c-6.262,7.585,6.62,8.597,9.918,10.571
		c0.989,0.651,4.961,2.962,2.649,4.624c-1.999,0.987-7.945,2.649-8.596,3.949c-1.975,2.986,2.312,6.284-0.674,9.27
		c-2.962-2.986-2.962-7.945-5.274-11.245c2.962,3.636-11.894,1.663-11.558,1.663c-4.959,0-12.883,3.298-16.517-1.663
		c-0.676-1.323-0.676-8.909,1.323-7.271c-2.986-2.312-4.959-4.623-6.935-5.948c-10.907,3.637-21.14,8.26-31.061,13.557
		c1.323,0.338,2.312,0.338,3.972-0.338c2.625-0.987,4.936-2.648,7.585-3.947c3.298-1.325,10.257-5.299,13.869-2.312
		c0.336-0.676,1.323-1.325,1.661-1.663c2.312,2.65,4.623,5.274,6.597,8.26c-2.624-1.325-6.935-0.674-9.895-0.338
		c-2.312,0.676-6.286,1.325-7.272,3.974c0.987,1.637,2.312,4.285,1.663,5.948c-4.311-2.987-7.61-7.947-13.557-8.597
		c-2.649,0-5.274,0-7.273,0.338c-31.711,17.505-58.463,42.933-77.63,73.319c1.325,1.325,2.648,2.312,3.973,2.648
		c3.298,0.988,0,10.571,6.286,5.611c1.974,1.661,2.312,3.973,0.987,6.284c0.336-0.338,13.532,8.26,14.52,8.908
		c2.335,1.999,5.946,4.311,6.958,6.935c0.65,2.312-1.325,4.961-3.324,5.948c-0.312-0.649-5.272-5.61-5.946-4.285
		c-0.988,1.661,0,10.571,3.635,10.233c-5.272,0.338-2.96,20.828-4.285,24.778c0,0.336,0.65,0.336,0.65,0.336
		c-0.988,3.973,2.312,19.479,8.934,17.842c-4.287,0.987,7.583,16.181,9.247,17.168c4.285,2.987,9.246,4.961,12.23,9.246
		c3.3,4.624,3.3,11.558,7.923,15.194c-1.325,3.975,6.935,8.598,6.597,14.208c-0.65,0.336-0.987,0.336-1.637,0.674
		c1.637,4.623,7.921,4.623,10.233,8.908c1.325,2.649,0,8.91,4.287,7.609c0.674-7.271-4.287-14.544-7.922-20.49
		c-1.975-3.3-3.973-6.286-5.611-9.584c-1.661-2.962-1.998-6.597-3.298-9.897c1.301,0.313,8.572,2.963,7.921,3.949
		c-2.648,6.622,10.571,18.18,14.207,22.467c0.987,0.987,8.572,10.907,4.624,10.907c4.285,0,10.233,6.597,12.208,9.896
		c2.986,4.96,2.312,11.244,4.311,16.518c1.974,6.622,11.22,9.583,16.517,12.57c4.624,2.312,8.572,5.609,13.195,7.247
		c6.958,2.647,8.596,0.336,14.543-0.65c8.596-1.325,9.583,8.259,16.518,11.896c4.287,2.312,13.533,5.61,18.18,3.635
		c-1.999,0.65,6.935,14.207,7.585,15.194c2.986,3.973,8.598,5.947,11.896,9.896c0.986-0.648,1.973-1.638,2.312-2.962
		c-1.325,3.635,4.959,10.569,8.259,9.92c3.635-0.672,4.623-7.945,4.623-10.57c-6.598,3.298-12.546,0.65-16.181-5.946
		c-0.676-1.661-5.948-10.909-1.325-10.909c6.284,0,1.974-4.959,1.325-9.583c-0.676-4.623-5.299-7.585-7.61-11.558
		c-1.974,3.973-8.572,2.961-10.571-0.338c0,0.987-0.986,2.649-0.986,3.975c-1.638,0-3.299,0.336-4.96-0.338
		c0.675-3.973,0.987-8.908,1.999-13.219c1.636-5.948,12.545-17.506-1.662-16.832c-4.96,0.312-6.935,2.312-8.596,6.597
		c-1.637,3.975-0.987,7.611-5.61,9.585c-2.962,1.324-12.883,0.65-15.845-0.987c-6.284-3.637-10.571-15.194-10.571-21.816
		c-0.336-8.908,4.287-16.831,0-25.089c1.975-1.661,3.951-4.961,6.262-6.622c1.997-1.325,4.309,0.986,5.295-2.962
		c-0.987-0.675-2.312-1.974-2.648-1.974c4.959,2.312,14.206-3.324,18.493,0c2.648,1.974,5.61,2.624,7.271-0.675
		c0.338-0.986-2.312-4.961-0.987-7.585c0.987,5.61,4.623,6.599,9.584,2.962c1.974,1.974,7.271,1.325,10.883,3.299
		c3.635,2.312,4.311,5.947,8.596,0.986c2.65,3.975,2.986,3.975,3.975,7.947c0.987,3.635,2.961,12.881,6.259,14.52
		c6.96,4.309,5.299-7.272,4.648-11.222c-0.338-0.336-0.338-11.245-0.674-11.245c-10.571-2.312-6.599-10.57-0.65-16.181
		c0.986-0.649,8.571-3.298,11.894-5.948c2.962-2.648,6.599-7.271,4.938-11.558c1.661,0,2.985-1.323,3.637-2.96
		c-0.989-0.338-4.962-3.636-5.612-3.324c2.312-1.299,1.976-3.298,0.65-5.273c3.322-1.974,1.661-5.61,4.962-6.935
		c3.634,4.961,10.907-0.673,7.271-4.623c3.299-4.624,10.907-2.312,12.883-6.621c4.959,1.325,1.323-4.938,3.973-8.572
		c2.312-2.985,6.26-2.985,9.246-4.623c0,0.313,8.259-4.625,5.609-4.961c5.61,0.65,16.855-5.297,8.26-10.233
		c1.325-2.986-2.962-4.311-5.948-4.961c2.312-0.674,5.298,0.651,7.273-0.674c4.285-2.96,1.324-4.285-2.312-5.272
		c-4.624-1.325-10.571,1.636-14.208,3.947C341.559,174.088,339.921,177.725,336.598,178.375z M406.306,399.369
		c-1.975-1.974-5.609-1.324-8.259-2.646c-2.648-0.99-4.624-1.978-7.922-2.649c0.65-6.597-6.622-8.908-11.245-12.209
		c-4.285-3.298-6.935-6.935-13.195-5.609c-0.674,0.312-7.271,2.624-5.946,3.948c-4.311-3.636-6.286-5.609-11.896-7.272
		c-5.298-1.637-8.934-8.259-14.207-2.312c-2.648,2.649-1.323,6.622-2.648,9.271c-4.287-3.635,3.973-7.945,0.675-11.895
		c-3.973-4.623-10.907,2.962-14.208,4.936c-1.997,1.663-4.309,2.336-5.633,4.311c-1.638,2.312-2.312,5.273-3.613,7.586
		c-1.011-2.626-6.62-1.974-6.935-3.949c1.301,7.92,1.301,16.179,2.962,24.101c0.988,4.623,0,12.233-3.973,15.87
		c-3.948,3.636-8.908,7.583-9.584,13.193c-0.648,3.975,0.338,7.61,3.975,8.598c0.336,4.961-5.273,8.597-4.961,13.869
		c0,0.338,0.338,3.637,0.674,5.299C335.61,453.884,375.919,431.421,406.306,399.369z"/>
</g>
</svg>
